<svg
    xmlns="http://www.w3.org/2000/svg"
    viewBox="0 0 960 960"
    id="vector">
    <path
        id="path"
        d="M 200 880 Q 167 880 143.5 856.5 Q 120 833 120 800 L 120 240 Q 120 207 143.5 183.5 Q 167 160 200 160 L 240 160 L 240 80 L 320 80 L 320 160 L 640 160 L 640 80 L 720 80 L 720 160 L 760 160 Q 793 160 816.5 183.5 Q 840 207 840 240 L 840 800 Q 840 833 816.5 856.5 Q 793 880 760 880 L 200 880 Z M 200 800 L 760 800 L 760 400 L 200 400 L 200 800 Z M 200 320 L 760 320 L 760 240 L 200 240 L 200 320 Z M 200 320 L 200 240 L 200 320 Z M 480 560 Q 463 560 451.5 548.5 Q 440 537 440 520 Q 440 503 451.5 491.5 Q 463 480 480 480 Q 497 480 508.5 491.5 Q 520 503 520 520 Q 520 537 508.5 548.5 Q 497 560 480 560 Z M 320 560 Q 303 560 291.5 548.5 Q 280 537 280 520 Q 280 503 291.5 491.5 Q 303 480 320 480 Q 337 480 348.5 491.5 Q 360 503 360 520 Q 360 537 348.5 548.5 Q 337 560 320 560 Z M 640 560 Q 623 560 611.5 548.5 Q 600 537 600 520 Q 600 503 611.5 491.5 Q 623 480 640 480 Q 657 480 668.5 491.5 Q 680 503 680 520 Q 680 537 668.5 548.5 Q 657 560 640 560 Z M 480 720 Q 463 720 451.5 708.5 Q 440 697 440 680 Q 440 663 451.5 651.5 Q 463 640 480 640 Q 497 640 508.5 651.5 Q 520 663 520 680 Q 520 697 508.5 708.5 Q 497 720 480 720 Z M 320 720 Q 303 720 291.5 708.5 Q 280 697 280 680 Q 280 663 291.5 651.5 Q 303 640 320 640 Q 337 640 348.5 651.5 Q 360 663 360 680 Q 360 697 348.5 708.5 Q 337 720 320 720 Z M 640 720 Q 623 720 611.5 708.5 Q 600 697 600 680 Q 600 663 611.5 651.5 Q 623 640 640 640 Q 657 640 668.5 651.5 Q 680 663 680 680 Q 680 697 668.5 708.5 Q 657 720 640 720 Z"
        fill="#e8eaed"/>
</svg>
