<svg
    xmlns="http://www.w3.org/2000/svg"
    viewBox="0 0 960 960"
    id="vector">
    <path
        id="path_1"
        d="M 260 800 Q 169 800 104.5 737 Q 40 674 40 583 Q 40 505 87 444 Q 134 383 210 366 Q 227 294 295 229 Q 363 164 440 164 Q 473 164 496.5 187.5 Q 520 211 520 244 L 520 486 L 584 424 L 640 480 L 480 640 L 320 480 L 376 424 L 440 486 L 440 244 Q 364 258 322 317.5 Q 280 377 280 440 L 260 440 Q 202 440 161 481 Q 120 522 120 580 Q 120 638 161 679 Q 202 720 260 720 L 740 720 Q 782 720 811 691 Q 840 662 840 620 Q 840 578 811 549 Q 782 520 740 520 L 680 520 L 680 440 Q 680 392 658 350.5 Q 636 309 600 280 L 600 187 Q 674 222 717 290.5 Q 760 359 760 440 Q 829 448 874.5 499.5 Q 920 551 920 620 Q 920 695 867.5 747.5 Q 815 800 740 800 L 260 800 Z M 480 442 Z"
        fill="#e8eaed"/>
</svg>
