<svg
    xmlns="http://www.w3.org/2000/svg"
    viewBox="0 0 960 960"
    id="vector">
    <path
        id="path"
        d="M 320 720 L 640 720 L 640 640 L 320 640 L 320 720 Z M 320 560 L 640 560 L 640 480 L 320 480 L 320 560 Z M 240 880 Q 207 880 183.5 856.5 Q 160 833 160 800 L 160 160 Q 160 127 183.5 103.5 Q 207 80 240 80 L 560 80 L 800 320 L 800 800 Q 800 833 776.5 856.5 Q 753 880 720 880 L 240 880 Z M 520 360 L 520 160 L 240 160 L 240 800 L 720 800 L 720 360 L 520 360 Z M 240 160 L 240 360 L 240 160 L 240 800 L 240 160 Z"
        fill="#e8eaed"/>
</svg>
